<svg xmlns="http://www.w3.org/2000/svg" width="1024" height="1024" viewBox="0 0 1024 1024"><path fill="#3789fe" d="M351.952 339.03c9.785-.509 21.965-.214 31.917-.206l56.675.03 39.543-.035c8.639-.003 19.987-.277 28.33.853a94.6 94.6 0 0 1 30.592 9.77 87.97 87.97 0 0 1 43.878 52.734c2.406 8.008 3.538 16.498 6.114 24.948 6.47 21.224 22.255 36.013 44.316 39.654 7.715 1.273 17.455 1.044 25.438 1.067l31.579-.063c5.406-.018 16.121-.605 20.35 2.263 10.776 7.307 8.297 22.97-4.535 26.386-9.111 1.166-23.178.629-32.545.552-21.204-.173-44.408 2.093-64.273-6.42-24.118-10.336-41.872-33.086-49.198-57.948-2.682-8.936-4.167-18.532-7.623-27.036a59.15 59.15 0 0 0-35.354-33.645 67 67 0 0 0-15.05-3.278c-9.774-.967-29.798-.566-40.068-.617l-83.895-.082c-7.214-.026-24.264 1.059-29.9-1.503a12.96 12.96 0 0 1-6.937-7.459 15.66 15.66 0 0 1 .845-12.454c2.399-4.559 5.126-6.138 9.801-7.511"/><path fill="#3789fe" d="M596.615 535.808c3.724-3.492 8.143-5.475 12.565-7.768 20.308-10.532 42.202-7.638 64.155-8.037 10.106.116 20.176-.211 30.28.173 4.409.253 7.191 1.499 10.166 4.659 5.496 5.839 4.541 15.936-1.864 20.652-5.39 3.968-15.56 2.515-22.141 2.622-8.02.132-16.191-.282-24.222-.128-12.885.05-25.638-.73-38.044 3.431-28.54 9.57-38.416 39.982-60.174 57.791-14.84 12.172-26.906 18.494-45.75 22.552a92.3 92.3 0 0 1-15.665 2.104c-11.824.52-25.714.147-37.707.134l-66.782-.021-31.888.008c-9.255.031-21.141 2.121-26.914-6.797a14.47 14.47 0 0 1-1.946-11.037 14.3 14.3 0 0 1 6.695-9.107c5.925-3.506 22.734-2.222 30.565-2.214l80.934.028c43.424.02 73.875 6.539 104.463-32.802 3.195-4.109 11.454-14.81 13.722-19.001 1.583-1.247 16.444-15.089 17.218-16.258 1.667.057.882.276 2.334-.984"/><defs><linearGradient id="a" x1="483.29" x2="452.276" y1="573.586" y2="444.102" gradientUnits="userSpaceOnUse"><stop offset="0" stop-color="#398dff"/><stop offset="1" stop-color="#22aeff"/></linearGradient></defs><path fill="url(#a)" d="M576.737 552.575c-3.826.429-8.573-5.466-10.947-8.168-14.476-16.477-24.724-34.503-45.888-43.148a62.6 62.6 0 0 0-17.17-4.372c-9.985-1.071-30.849-.489-41.415-.484l-77.56.044c-7.308.003-14.629.037-21.936.004-7.814-.034-14.928.802-19.381-7.039a15.53 15.53 0 0 1-1.284-12.451 13.95 13.95 0 0 1 7.473-8.393c5.34-2.397 28.05-1.516 35.067-1.51l53.651.025 40.521-.033c8.28-.014 18.16-.288 26.237.37a86.7 86.7 0 0 1 25.689 5.899c24.836 10.09 37.167 27.109 52.818 47.256 2.867 3.69 12.505 11.684 14.003 15.233-1.452 1.26-.667 1.041-2.334.984-5.642 2.465-13.54 11.115-17.544 15.783"/><path fill="#3789fe" d="M277.207 582.998c18.448-3.664 36.362 8.361 39.958 26.822 3.597 18.461-8.493 36.331-26.967 39.86-18.379 3.511-36.137-8.503-39.715-26.869-3.579-18.367 8.371-36.168 26.724-39.813"/><path fill="#3789fe" d="M277.681 316.841c18.551-3.38 36.297 9.024 39.497 27.607 3.201 18.584-9.374 36.209-27.987 39.229-18.361 2.98-35.695-9.387-38.852-27.718s9.042-35.784 27.342-39.118"/><path fill="#2ba5fe" d="M278.289 445.737c18.397-3.05 35.782 9.395 38.827 27.794 3.044 18.398-9.407 35.779-27.806 38.818-18.391 3.037-35.764-9.407-38.806-27.797-3.043-18.391 9.395-35.767 27.785-38.815"/><path fill="#2ba5fe" d="M750.714 461.511c3.499-.107 7.55.399 10.226 2.949 12.675 12.165 25.502 24.845 37.657 37.476 4.339 5.238 3.826 12.802-.934 17.294-11.955 11.279-25.22 27.526-38.122 37.237-7.874 4.591-18.902-.567-19.179-10.02-.183-6.283 5.021-11.542 9.169-15.755 6.992-7.103 14.266-13.953 21.13-21.242-8.428-10.1-21.87-19.142-28.731-30.302-5.019-8.163 1.559-14.644 8.784-17.637"/><path fill="#3789fe" fill-opacity=".035" d="M594.281 536.792c-.774 1.169-15.635 15.011-17.218 16.258l-.326-.475c4.004-4.668 11.902-13.318 17.544-15.783"/></svg>