<?xml version="1.0" encoding="UTF-8" standalone="no"?>
<!DOCTYPE svg PUBLIC "-//W3C//DTD SVG 1.1//EN" "http://www.w3.org/Graphics/SVG/1.1/DTD/svg11.dtd">
<svg width="100%" height="100%" viewBox="0 0 90 89" version="1.1" xmlns="http://www.w3.org/2000/svg" xmlns:xlink="http://www.w3.org/1999/xlink" xml:space="preserve" xmlns:serif="http://www.serif.com/" style="fill-rule:evenodd;clip-rule:evenodd;stroke-linejoin:round;stroke-miterlimit:2;">
    <g transform="matrix(1,0,0,1,-10.055,-15.8077)">
        <g transform="matrix(1,0,0,1,5,10)">
            <path d="M34.711,63C37.094,63.668 38.738,65.84 38.738,68.316C38.738,70.789 37.094,72.961 34.711,73.629L34.711,76L45.57,76L45.57,55L34.711,55L34.711,63ZM31.813,73.629L31.813,77.5L31.809,77.5C31.809,78.301 32.461,78.949 33.262,78.949L45.571,78.949L45.571,87.25C45.485,90.969 42.473,93.953 38.75,94.004C35.032,94.051 31.942,91.145 31.762,87.43C31.766,86.988 31.567,86.57 31.223,86.293C30.883,86.012 30.43,85.906 30,86C27.704,86.555 25.282,85.899 23.579,84.262C21.875,82.621 21.125,80.227 21.59,77.91C21.789,76.91 22.789,75.359 21.231,74.699C20.559,74.41 20.11,74.699 19.231,74.879C11.86,75.988 8.231,66.219 14.461,62.238C14.993,61.898 15.243,61.25 15.079,60.636C14.911,60.023 14.364,59.593 13.731,59.57C8.789,59.074 5.036,54.906 5.055,49.941C5.075,44.98 8.86,40.84 13.801,40.379C14.414,40.328 14.93,39.886 15.075,39.289C15.223,38.687 14.973,38.062 14.45,37.73C13.469,37.109 12.664,36.25 12.11,35.23C10.778,32.758 11.071,29.726 12.852,27.558C14.633,25.386 17.547,24.508 20.231,25.328C20.766,25.496 21.352,25.34 21.731,24.922C22.11,24.508 22.215,23.91 22,23.39C21,20.984 21.434,18.222 23.121,16.242C24.809,14.261 27.469,13.394 30,14C30.43,14.105 30.883,14.004 31.231,13.734C31.579,13.461 31.782,13.043 31.782,12.601C31.969,8.883 35.067,5.98 38.793,6.039C42.516,6.097 45.52,9.097 45.59,12.82L45.59,32.359L37.481,32.359L37.481,28.359C39.125,27.906 40.469,26.715 41.114,25.132C41.762,23.55 41.637,21.761 40.782,20.285C39.922,18.804 38.43,17.808 36.735,17.586C35.043,17.363 33.34,17.937 32.129,19.14C31.098,20.171 30.52,21.57 30.52,23.031C30.52,24.488 31.098,25.886 32.129,26.921C32.805,27.601 33.645,28.089 34.571,28.339L34.571,32.339L28.571,32.339C27.836,29.687 25.258,27.984 22.528,28.351C19.801,28.714 17.762,31.039 17.75,33.789C17.75,40.179 26.899,41.367 28.57,35.238L45.57,35.238L45.57,42.347L24.82,42.351C24.434,42.347 24.063,42.5 23.789,42.769C23.516,43.043 23.359,43.414 23.359,43.8L23.359,52.109C21.469,52.628 19.992,54.117 19.488,56.011C18.988,57.91 19.531,59.933 20.922,61.32C22.129,62.531 23.832,63.109 25.527,62.89C27.227,62.667 28.723,61.671 29.582,60.191C30.442,58.714 30.567,56.918 29.914,55.335C29.266,53.753 27.922,52.562 26.27,52.109L26.27,45.269L45.571,45.269L45.571,52.089L33.262,52.089C32.461,52.089 31.809,52.738 31.809,53.539L31.809,62.999C30.883,63.253 30.039,63.742 29.359,64.421C28.328,65.453 27.75,66.851 27.75,68.308C27.75,69.769 28.328,71.167 29.359,72.199C30.039,72.874 30.879,73.363 31.801,73.621L31.813,73.629ZM35.102,66.469C37.531,68.758 33.91,72.66 31.41,70.168L31.41,70.172C30.399,69.149 30.399,67.5 31.41,66.481C31.899,65.992 32.559,65.719 33.25,65.719C33.941,65.719 34.602,65.992 35.09,66.481L35.102,66.469ZM62.813,71.469L62.809,71.469C64.465,71.918 65.813,73.109 66.465,74.692C67.117,76.274 66.996,78.07 66.137,79.551C65.277,81.035 63.781,82.031 62.082,82.254C60.383,82.473 58.68,81.891 57.469,80.68C56.082,79.293 55.539,77.27 56.039,75.371C56.543,73.477 58.016,71.988 59.91,71.469L59.91,55L54.43,55L54.43,87.211C54.379,91.02 57.43,94.148 61.238,94.199C65.051,94.25 68.18,91.199 68.231,87.391C68.242,86.953 68.445,86.547 68.789,86.277C69.129,86.008 69.574,85.906 70,86C72.535,86.617 75.203,85.754 76.895,83.766C78.586,81.777 79.016,79.004 78,76.601C77.781,76.074 77.887,75.473 78.27,75.055C78.656,74.637 79.25,74.48 79.789,74.66C83.09,75.672 86.629,74.094 88.082,70.961C89.535,67.828 88.453,64.105 85.551,62.238C85.016,61.898 84.766,61.25 84.93,60.64C85.098,60.031 85.637,59.597 86.27,59.57C93.59,59.07 98.032,49.629 92.43,43.492L92.43,43.488C90.817,41.707 88.594,40.598 86.199,40.379C85.586,40.328 85.07,39.887 84.926,39.289C84.777,38.687 85.027,38.062 85.551,37.73C91.75,33.73 88.141,23.992 80.781,25.101C80.012,25.211 78.43,25.922 77.953,24.371C77.653,23.371 78.555,22.961 78.555,20.68L78.551,20.68C78.535,18.566 77.555,16.574 75.891,15.273C74.223,13.969 72.055,13.5 70,14C69.57,14.105 69.117,14.004 68.766,13.734C68.418,13.461 68.215,13.043 68.211,12.602C68.149,8.789 65.012,5.75 61.199,5.809C57.391,5.871 54.348,9.008 54.41,12.82L54.41,32.359L66,32.359L66,29.09C59.84,27.41 61.09,18.262 67.449,18.262C73.809,18.262 75.051,27.41 68.899,29.09L68.899,33.809C68.899,34.609 68.25,35.262 67.449,35.262L54.449,35.262L54.449,42.371L70.57,42.371C71.094,40.48 72.582,39.012 74.477,38.508C76.371,38.008 78.391,38.547 79.781,39.93C80.992,41.141 81.574,42.844 81.352,44.543C81.133,46.238 80.133,47.738 78.652,48.598C77.172,49.457 75.375,49.578 73.793,48.926C72.207,48.273 71.016,46.922 70.57,45.27L54.429,45.27L54.429,52.09L75.859,52.09C76.246,52.09 76.613,52.242 76.887,52.516C77.156,52.785 77.309,53.156 77.309,53.539L77.309,59.148C79.199,59.676 80.668,61.16 81.172,63.055C81.672,64.949 81.133,66.969 79.75,68.359C78.539,69.57 76.84,70.148 75.141,69.93C73.445,69.707 71.949,68.711 71.09,67.234C70.23,65.754 70.105,63.957 70.754,62.375C71.402,60.793 72.75,59.602 74.398,59.148L74.398,55L62.808,55L62.808,71.41L62.813,71.469ZM63.211,74.949C65.641,77.238 62.012,81.129 59.512,78.641C57.082,76.211 60.774,72.52 63.203,74.949L63.211,74.949ZM77.711,62.679C78.719,63.703 78.719,65.347 77.711,66.371C76.692,67.386 75.039,67.386 74.02,66.371C71.59,64.011 75.239,60.222 77.711,62.679ZM77.711,42.038C80.141,44.46 76.449,48.159 74.02,45.73C71.59,43.3 75.301,39.55 77.731,41.999L77.711,42.038ZM26.66,55.6C24.23,53.171 20.539,56.87 22.969,59.292C25.457,61.772 29.09,57.893 26.66,55.593L26.66,55.6ZM25.121,31.998C22.691,29.569 19,33.26 21.43,35.69C23.859,38.119 27.551,34.299 25.121,31.998ZM69.262,21.998C71.692,24.299 68.063,28.19 65.571,25.69C63.082,23.19 66.832,19.569 69.262,21.998ZM37.871,21.237C36.848,20.229 35.203,20.229 34.18,21.237C33.168,22.26 33.168,23.908 34.18,24.928C36.68,27.35 40.301,23.447 37.871,21.158L37.871,21.237Z" style="fill:url(#_Linear1);"/>
        </g>
    </g>
    <defs>
        <linearGradient id="_Linear1" x1="0" y1="0" x2="1" y2="0" gradientUnits="userSpaceOnUse" gradientTransform="matrix(79.9386,-71.4444,71.4444,79.9386,11.1951,85.6381)"><stop offset="0" style="stop-color:rgb(11,16,32);stop-opacity:1"/><stop offset="0.25" style="stop-color:rgb(26,42,108);stop-opacity:1"/><stop offset="0.5" style="stop-color:rgb(47,128,237);stop-opacity:1"/><stop offset="0.75" style="stop-color:rgb(86,204,242);stop-opacity:1"/><stop offset="1" style="stop-color:rgb(178,240,232);stop-opacity:1"/></linearGradient>
    </defs>
</svg>
