<?xml version="1.0" encoding="UTF-8" standalone="no"?>
<!DOCTYPE svg PUBLIC "-//W3C//DTD SVG 1.1//EN" "http://www.w3.org/Graphics/SVG/1.1/DTD/svg11.dtd">
<svg width="100%" height="100%" viewBox="0 0 6474 6474" version="1.1" xmlns="http://www.w3.org/2000/svg" xmlns:xlink="http://www.w3.org/1999/xlink" xml:space="preserve" xmlns:serif="http://www.serif.com/" style="fill-rule:evenodd;clip-rule:evenodd;stroke-linejoin:round;stroke-miterlimit:2;">
    <g transform="matrix(1,0,0,1,-1346.43,-995.833)">
        <g transform="matrix(4.16667,0,0,4.16667,0,0)">
            <path d="M868.191,1454.66C852.875,1543.61 790.067,1616.35 705.462,1643.13C620.326,1670.08 515.541,1653.85 433.944,1681.91C462.019,1600.32 445.782,1495.54 472.734,1410.4C499.514,1325.8 572.258,1262.99 661.195,1247.67L690.474,1225.79L894.148,1429.47L868.191,1454.66Z" style="fill:rgb(241,202,54);fill-rule:nonzero;"/>
        </g>
        <g transform="matrix(4.16667,0,0,4.16667,0,0)">
            <path d="M790.27,1325.6L433.944,1681.92C462.01,1600.32 445.773,1495.54 472.733,1410.4C499.514,1325.8 572.255,1262.98 661.191,1247.67L690.473,1225.8L790.27,1325.6Z" style="fill:rgb(223,166,45);fill-rule:nonzero;"/>
        </g>
        <g transform="matrix(4.16667,0,0,4.16667,0,0)">
            <path d="M950.342,1434.51L892.826,1461.87C885.688,1465.26 877.72,1464.19 872.681,1459.15L795.467,1381.94L733.626,1320.1L656.713,1243.18C651.673,1238.15 650.602,1230.18 653.992,1223.04L681.353,1165.52L706.906,1139.97L975.895,1408.96L950.342,1434.51Z" style="fill:rgb(36,46,51);fill-rule:nonzero;"/>
        </g>
        <g transform="matrix(4.16667,0,0,4.16667,0,0)">
            <path d="M841.399,1274.47L764.692,1351.17L656.714,1243.19C651.67,1238.15 650.606,1230.18 653.991,1223.03L681.352,1165.52L706.903,1139.97L841.399,1274.47Z" style="fill:rgb(13,24,29);fill-rule:nonzero;"/>
        </g>
        <g transform="matrix(4.16667,0,0,4.16667,0,0)">
            <path d="M848.85,951.289C746.712,849.15 565.69,858.242 331.868,1092.06L331.831,1092.03C320.248,1103.61 320.248,1122.39 331.831,1133.97C337.994,1140.13 350.072,1143.42 363.537,1139.34C606.589,1065.67 693.36,1114.66 693.36,1114.66L852.789,955.227L848.85,951.289Z" style="fill:rgb(162,34,52);fill-rule:nonzero;"/>
        </g>
        <g transform="matrix(4.16667,0,0,4.16667,0,0)">
            <path d="M1164.58,1267.02C1266.71,1369.15 1257.62,1550.18 1023.8,1784L1023.84,1784.03C1012.26,1795.62 993.478,1795.62 981.895,1784.03C975.732,1777.87 972.447,1765.79 976.529,1752.33C1050.2,1509.28 1001.21,1422.51 1001.21,1422.51L1160.64,1263.08L1164.58,1267.02Z" style="fill:rgb(214,52,61);fill-rule:nonzero;"/>
        </g>
        <g transform="matrix(4.16667,0,0,4.16667,0,0)">
            <path d="M1861,531.315C1832,694.123 1754.53,903.712 1561.68,1096.56C1395.18,1263.06 1128.67,1399.8 968.728,1440.76C962.67,1442.31 956.689,1440.85 952.704,1436.86L679.006,1163.16C675.02,1159.18 673.554,1153.2 675.102,1147.14C716.062,987.196 852.809,720.682 1019.3,554.188C1212.15,361.337 1421.74,283.862 1584.55,254.868C1584.55,254.868 1644.33,250.311 1754.94,360.924C1866.39,472.371 1861,531.315 1861,531.315Z" style="fill:rgb(211,225,230);fill-rule:nonzero;"/>
        </g>
        <g transform="matrix(4.16667,0,0,4.16667,0,0)">
            <path d="M1754.95,360.92L815.849,1300.02L679.003,1163.17C675.01,1159.18 673.559,1153.19 675.106,1147.14C716.065,987.206 852.813,720.673 1019.3,554.187C1212.15,361.335 1421.74,283.854 1584.55,254.862C1584.55,254.862 1644.33,250.302 1754.95,360.92Z" style="fill:rgb(169,197,207);fill-rule:nonzero;"/>
        </g>
        <g transform="matrix(4.16667,0,0,4.16667,0,0)">
            <path d="M990.771,1207.95C831.701,1367.02 670.144,1504.17 640.92,1474.95C610.585,1444.61 748.842,1284.16 907.911,1125.09C930.792,1102.21 967.89,1102.21 990.771,1125.09C1013.65,1147.98 1013.65,1185.07 990.771,1207.95Z" style="fill:rgb(214,52,61);fill-rule:nonzero;"/>
        </g>
        <g transform="matrix(4.16667,0,0,4.16667,0,0)">
            <path d="M990.764,1125.1L640.919,1474.95C610.587,1444.61 748.842,1284.17 907.908,1125.1C930.791,1102.22 967.881,1102.22 990.764,1125.1Z" style="fill:rgb(162,34,52);fill-rule:nonzero;"/>
        </g>
        <g transform="matrix(4.16667,0,0,4.16667,0,0)">
            <path d="M1534.95,939.167C1436.02,1038.09 1275.63,1038.09 1176.7,939.167C1077.77,840.239 1077.77,679.845 1176.7,580.918C1275.63,481.99 1436.02,481.99 1534.95,580.918C1633.88,679.845 1633.88,840.239 1534.95,939.167Z" style="fill:white;fill-rule:nonzero;"/>
        </g>
        <g transform="matrix(4.16667,0,0,4.16667,0,0)">
            <path d="M1534.95,580.912L1176.69,939.172C1077.77,840.245 1077.77,679.839 1176.69,580.912C1275.62,481.985 1436.03,481.985 1534.95,580.912Z" style="fill:rgb(218,231,237);fill-rule:nonzero;"/>
        </g>
        <g transform="matrix(4.16667,0,0,4.16667,0,0)">
            <path d="M1498.01,902.233C1419.48,980.77 1292.15,980.77 1213.62,902.233C1197.83,886.451 1185.21,868.678 1175.78,849.75C1169.31,836.776 1164.33,823.234 1160.87,809.389C1156.51,792.167 1154.47,774.483 1154.77,756.835C1155.3,721.61 1165.08,686.526 1184.04,655.478C1192.18,642.077 1202.06,629.423 1213.63,617.853C1292.17,539.316 1419.49,539.316 1498.01,617.835C1509.6,629.423 1519.48,642.077 1527.62,655.478C1546.59,686.526 1556.34,721.627 1556.89,756.835C1557.16,774.483 1555.15,792.167 1550.8,809.389C1547.31,823.216 1542.32,836.741 1535.87,849.733C1526.41,868.678 1513.81,886.433 1498.01,902.233Z" style="fill:rgb(96,178,227);fill-rule:nonzero;"/>
        </g>
        <g transform="matrix(4.16667,0,0,4.16667,0,0)">
            <path d="M1213.62,902.233C1197.83,886.451 1185.21,868.678 1175.78,849.75C1169.31,836.776 1164.33,823.234 1160.87,809.389C1156.51,792.167 1154.47,774.483 1154.77,756.835C1155.3,721.61 1165.08,686.526 1184.04,655.478C1192.18,642.077 1202.06,629.423 1213.63,617.853C1292.17,539.316 1419.49,539.316 1498.01,617.835L1213.62,902.233Z" style="fill:rgb(81,163,203);fill-rule:nonzero;"/>
        </g>
        <g transform="matrix(4.16667,0,0,4.16667,0,0)">
            <path d="M1861,531.315C1861,531.315 1838.51,483.671 1735.34,380.507C1632.2,277.359 1584.55,254.868 1584.55,254.868C1696.36,234.945 1786.12,237.872 1833.29,241.993C1855.52,243.959 1871.91,260.35 1873.86,282.561C1877.98,329.727 1880.92,419.506 1861,531.315Z" style="fill:rgb(214,52,61);fill-rule:nonzero;"/>
        </g>
        <g transform="matrix(4.16667,0,0,4.16667,0,0)">
            <path d="M1861.18,254.683L1735.35,380.515L1735.34,380.501C1632.19,277.359 1584.55,254.862 1584.55,254.862C1696.35,234.95 1786.12,237.879 1833.3,241.997C1844.41,242.992 1854.07,247.566 1861.18,254.683Z" style="fill:rgb(162,34,52);fill-rule:nonzero;"/>
        </g>
    </g>
</svg>
